<svg aria-hidden="true" class="r-1cvl2hr r-4qtqp9 r-yyyyoo r-z80fyv r-dnmrzs r-bnwqim r-1plcrui r-lrvibr r-19wmn03"
     height="24" viewBox="0 0 24 24"
     width="24" xmlns="http://www.w3.org/2000/svg">
    <g fill="#1D9BF0">
        <path d="M6 5c-1.1 0-2 .895-2 2s.9 2 2 2 2-.895 2-2-.9-2-2-2zM2 7c0-2.209 1.79-4 4-4s4 1.791 4 4-1.79 4-4 4-4-1.791-4-4zm20 1H12V6h10v2zM6 15c-1.1 0-2 .895-2 2s.9 2 2 2 2-.895 2-2-.9-2-2-2zm-4 2c0-2.209 1.79-4 4-4s4 1.791 4 4-1.79 4-4 4-4-1.791-4-4zm20 1H12v-2h10v2zM7 7c0 .552-.45 1-1 1s-1-.448-1-1 .45-1 1-1 1 .448 1 1z"
              fill="#1D9BF0"></path>
    </g>
</svg>
